<?xml version="1.0" encoding="UTF-8" standalone="no"?>

<svg
   xmlns:svg="http://www.w3.org/2000/svg"
   xmlns="http://www.w3.org/2000/svg"
   width="128"
   height="128"
   viewBox="0 0 128 128"
   >
  <g>
    <path
       style="fill:#000000;fill-opacity:1;stroke:#000000;stroke-width:0.41954014;stroke-opacity:1"
       d="M 64.199219 0.20898438 A 63.990234 63.790234 0 0 0 0.20898438 64 A 63.990234 63.790234 0 0 0 64.199219 127.79102 A 63.990234 63.790234 0 0 0 128.18945 64 A 63.990234 63.790234 0 0 0 64.199219 0.20898438 z M 84.634766 18.333984 C 86.417509 18.297594 88.083992 18.653546 89.558594 19.503906 C 92.611353 21.264336 94.287037 24.772784 95.007812 29.083984 C 95.72859 33.395174 95.504457 38.688001 94.277344 44.644531 C 94.125625 45.380978 93.930562 46.141617 93.746094 46.896484 C 94.889336 47.226532 96.001204 47.573351 97.070312 47.941406 C 102.45449 49.794956 106.86094 52.129703 110.04102 54.783203 C 113.22109 57.436703 115.31836 60.511546 115.31836 63.916016 C 115.31836 67.439986 113.11677 70.645708 109.74219 73.423828 C 106.3676 76.201968 101.66953 78.6497 95.896484 80.5625 C 95.278406 80.767283 94.620928 80.948249 93.978516 81.138672 C 94.21025 82.071279 94.424115 82.996005 94.603516 83.902344 C 95.752905 89.708844 95.889663 94.883009 95.107422 99.099609 C 94.325181 103.31631 92.622585 106.736 89.632812 108.4668 C 86.73447 110.1447 83.076244 109.9461 79.238281 108.5957 C 75.400319 107.2454 71.231429 104.68703 66.964844 101.01562 C 66.043009 100.22237 65.114866 99.372759 64.185547 98.478516 C 63.474297 99.165043 62.761695 99.830242 62.046875 100.45508 C 57.590368 104.35068 53.176606 107.05432 49.132812 108.48242 C 45.08902 109.91102 41.275878 110.14367 38.283203 108.41797 C 35.38212 106.74487 33.727283 103.47802 32.980469 99.478516 C 32.233654 95.479116 32.367967 90.586541 33.417969 85.056641 C 33.644467 83.863736 33.914611 82.638285 34.224609 81.388672 C 33.276454 81.115966 32.34591 80.831889 31.449219 80.525391 C 25.848261 78.610991 21.30229 76.137176 18.044922 73.347656 C 14.787554 70.558116 12.681641 67.370666 12.681641 63.916016 C 12.681641 60.567016 14.683873 57.502402 17.775391 54.857422 C 20.866908 52.212442 25.171357 49.8843 30.486328 48.03125 C 31.699521 47.608304 32.974425 47.21345 34.289062 46.839844 C 34.001762 45.684498 33.744562 44.547693 33.527344 43.4375 C 32.433912 37.8492 32.246031 32.864833 32.949219 28.783203 C 33.652406 24.701573 35.26256 21.346295 38.208984 19.640625 C 39.733854 18.757835 41.465678 18.390247 43.328125 18.435547 C 45.190572 18.480827 47.182956 18.938825 49.230469 19.703125 C 53.325493 21.231745 57.799997 24.069432 62.347656 28.107422 C 62.910653 28.607298 63.472562 29.155811 64.035156 29.693359 C 64.892981 28.867111 65.749831 28.076918 66.603516 27.333984 C 70.898995 23.595834 75.122445 20.944835 79.009766 19.515625 C 80.953426 18.801025 82.852023 18.372337 84.634766 18.335938 L 84.634766 18.333984 z M 84.652344 22.746094 C 83.50224 22.775064 82.115985 23.044629 80.521484 23.630859 C 77.332484 24.803319 73.472158 27.168545 69.482422 30.640625 C 68.701649 31.320107 67.91328 32.049615 67.121094 32.8125 C 70.080554 35.998617 72.994635 39.657603 75.794922 43.648438 C 80.655548 44.103533 85.271687 44.824578 89.5 45.800781 C 89.66717 45.116 89.845861 44.424586 89.982422 43.761719 C 91.125775 38.211759 91.281008 33.381924 90.683594 29.808594 C 90.08618 26.235274 88.744412 24.098888 87.367188 23.304688 C 86.716318 22.929348 85.802447 22.717094 84.652344 22.746094 z M 43.294922 22.847656 C 42.068186 22.812516 41.094181 23.035334 40.40625 23.433594 C 39.105749 24.186444 37.846396 26.180917 37.269531 29.529297 C 36.692667 32.877687 36.81448 37.405193 37.830078 42.595703 C 38.031299 43.624135 38.271579 44.684449 38.541016 45.765625 C 42.773039 44.80473 47.386754 44.092856 52.238281 43.644531 C 55.065899 39.652261 58.000969 36.005534 60.964844 32.824219 C 60.454465 32.336802 59.942225 31.836591 59.435547 31.386719 C 55.198321 27.624369 51.091408 25.077527 47.697266 23.810547 C 46.000194 23.177047 44.521658 22.882856 43.294922 22.847656 z M 64.052734 35.955078 C 62.017669 38.152437 59.980239 40.601557 57.974609 43.244141 C 59.961222 43.152324 61.966037 43.089844 64 43.089844 C 66.055399 43.089844 68.074856 43.154307 70.074219 43.248047 C 68.088623 40.603699 66.071962 38.145347 64.052734 35.955078 z M 64 47.474609 C 60.823931 47.474609 57.699415 47.599473 54.660156 47.830078 C 52.943801 50.341737 51.27159 52.984268 49.677734 55.748047 C 48.090806 58.499834 46.638936 61.269262 45.320312 64.017578 C 46.639465 66.759576 48.092459 69.529032 49.691406 72.291016 C 51.291589 75.055047 52.976536 77.70914 54.708984 80.236328 C 57.732058 80.434059 60.839157 80.541016 64 80.541016 C 67.195803 80.541016 70.336659 80.41731 73.394531 80.197266 C 75.083961 77.667156 76.736101 75.018052 78.322266 72.267578 C 79.918997 69.498764 81.381463 66.714397 82.71875 63.955078 C 81.370116 61.22704 79.899848 58.473257 78.308594 55.724609 C 76.722508 52.984864 75.058865 50.350842 73.353516 47.835938 C 70.318589 47.603577 67.192503 47.474609 64 47.474609 z M 49.027344 48.408203 C 45.759511 48.817425 42.643592 49.350985 39.738281 50 C 40.62273 52.845082 41.721771 55.816155 43.001953 58.855469 C 43.9153 57.087666 44.862212 55.319623 45.878906 53.556641 C 46.898558 51.788545 47.955139 50.082233 49.027344 48.408203 z M 78.982422 48.416016 C 80.045354 50.083491 81.091783 51.779716 82.103516 53.527344 C 83.132141 55.304138 84.099959 57.082134 85.037109 58.859375 C 86.328819 55.832739 87.445016 52.871454 88.330078 50.041016 C 85.410971 49.375888 82.272365 48.833356 78.982422 48.416016 z M 35.470703 51.064453 C 34.239468 51.413469 33.050956 51.780977 31.929688 52.171875 C 27.005522 53.888675 23.143484 56.03445 20.626953 58.1875 C 18.110422 60.34054 17.066406 62.397676 17.066406 63.916016 C 17.066406 65.477446 18.208229 67.715408 20.896484 70.017578 C 23.584739 72.319738 27.680741 74.604193 32.867188 76.376953 C 33.682616 76.655679 34.535154 76.9155 35.408203 77.166016 C 36.697944 72.955591 38.411974 68.524888 40.482422 64.021484 C 38.437189 59.580624 36.746147 55.218646 35.470703 51.064453 z M 92.583984 51.126953 C 91.312967 55.246385 89.619104 59.557333 87.583984 63.9375 C 89.692202 68.37289 91.46921 72.741297 92.787109 76.917969 C 93.36624 76.746098 93.963999 76.583803 94.517578 76.400391 C 99.896603 74.618161 104.15805 72.341702 106.95508 70.039062 C 109.75211 67.736423 110.93359 65.505876 110.93359 63.916016 C 110.93359 62.413316 109.84122 60.325248 107.23242 58.148438 C 104.62363 55.971616 100.64351 53.809501 95.642578 52.087891 C 94.664531 51.751185 93.639856 51.431918 92.583984 51.126953 z M 64 54.75 A 9.1652555 9.1652555 0 0 1 73.166016 63.916016 A 9.1652555 9.1652555 0 0 1 64 73.080078 A 9.1652555 9.1652555 0 0 1 54.833984 63.916016 A 9.1652555 9.1652555 0 0 1 64 54.75 z M 85.076172 69.029297 C 84.136351 70.83913 83.1623 72.649574 82.121094 74.455078 C 81.095915 76.232786 80.038049 77.959409 78.966797 79.658203 C 82.344943 79.251735 85.560209 78.713196 88.537109 78.035156 C 87.613331 75.149157 86.431718 72.12163 85.076172 69.029297 z M 43.007812 69.183594 C 41.698771 72.292651 40.578342 75.33072 39.677734 78.234375 C 42.615952 78.871469 45.796391 79.362481 49.121094 79.734375 C 48.021273 78.026107 46.938181 76.287626 45.896484 74.488281 C 44.873003 72.720342 43.923404 70.950065 43.007812 69.183594 z M 89.738281 82.259766 C 85.450283 83.253758 80.767602 83.968431 75.837891 84.404297 C 73.065385 88.420636 70.187323 92.122499 67.246094 95.335938 C 68.1132 96.171247 68.974145 96.959904 69.824219 97.691406 C 73.777078 101.09301 77.56923 103.36174 80.693359 104.46094 C 83.817489 105.56014 86.121497 105.43257 87.435547 104.67188 C 88.786971 103.88947 90.15131 101.78068 90.796875 98.300781 C 91.44244 94.820881 91.367059 90.130706 90.302734 84.753906 C 90.141906 83.941405 89.948366 83.105335 89.738281 82.259766 z M 38.478516 82.46875 C 38.188361 83.635568 37.935499 84.774593 37.726562 85.875 C 36.753766 90.9984 36.683102 95.418228 37.291016 98.673828 C 37.898929 101.92933 39.159276 103.86054 40.474609 104.61914 C 41.827647 105.39844 44.335703 105.52791 47.671875 104.34961 C 51.00914 103.17101 55.035427 100.76355 59.162109 97.15625 C 59.811944 96.588218 60.464954 95.97792 61.119141 95.345703 C 58.133371 92.144434 55.168344 88.471745 52.316406 84.457031 C 47.42414 84.062366 42.753786 83.416369 38.478516 82.46875 z M 70.177734 84.773438 C 68.140357 84.863511 66.084302 84.925781 64 84.925781 C 61.981674 84.925781 59.990221 84.873573 58.015625 84.796875 C 60.050487 87.475994 62.117116 89.956734 64.177734 92.181641 C 66.191839 89.960712 68.200039 87.459131 70.177734 84.773438 z "/>
  </g>
</svg>
